<svg width="87" height="23" viewBox="0 0 87 23" fill="none" xmlns="http://www.w3.org/2000/svg">
<path fill-rule="evenodd" clip-rule="evenodd" d="M14.146 18.1667C14.146 18.1667 12.0248 14.8013 13.7231 11.5C15.6208 7.8112 14.0693 4.83333 14.0693 4.83333H2.33711C2.33711 4.83333 3.8859 7.81067 1.98971 11.499C0.292091 14.801 2.42365 18.1667 2.42365 18.1667H14.146V18.1667Z" fill="#0F766E"/>
<path d="M35.726 18V8.586C35.726 8.226 35.792 7.965 35.924 7.803C36.056 7.641 36.257 7.539 36.527 7.497H32.495V4.914H41.801V7.497H38.588V18H35.726ZM44.7239 18.108C44.1659 18.108 43.6589 18.003 43.2029 17.793C42.7529 17.583 42.3959 17.274 42.1319 16.866C41.8679 16.458 41.7359 15.957 41.7359 15.363C41.7359 14.769 41.8559 14.28 42.0959 13.896C42.3419 13.512 42.6749 13.212 43.0949 12.996C43.5149 12.774 43.9889 12.609 44.5169 12.501C44.8709 12.429 45.2339 12.369 45.6059 12.321C45.9839 12.273 46.3379 12.234 46.6679 12.204C47.0039 12.174 47.2889 12.15 47.5229 12.132V11.862C47.5229 11.238 47.4179 10.8 47.2079 10.548C47.0039 10.296 46.6439 10.17 46.1279 10.17C45.7979 10.17 45.5189 10.215 45.2909 10.305C45.0689 10.395 44.9009 10.557 44.7869 10.791C44.6789 11.025 44.6279 11.358 44.6339 11.79H41.9879C41.9159 10.926 42.0509 10.215 42.3929 9.657C42.7349 9.093 43.2359 8.676 43.8959 8.406C44.5559 8.13 45.3299 7.992 46.2179 7.992C46.7339 7.992 47.2349 8.049 47.7209 8.163C48.2069 8.271 48.6419 8.46 49.0259 8.73C49.4099 8.994 49.7129 9.357 49.9349 9.819C50.1629 10.281 50.2769 10.866 50.2769 11.574V18H47.5049L47.5229 15.705C47.4149 16.365 47.1449 16.932 46.7129 17.406C46.2869 17.874 45.6239 18.108 44.7239 18.108ZM45.6509 16.254C45.9449 16.254 46.2239 16.2 46.4879 16.092C46.7579 15.978 46.9859 15.825 47.1719 15.633C47.3579 15.435 47.4749 15.216 47.5229 14.976V13.428C47.2829 13.464 47.0399 13.503 46.7939 13.545C46.5479 13.587 46.3319 13.632 46.1459 13.68C45.5459 13.812 45.1349 13.995 44.9129 14.229C44.6909 14.457 44.5799 14.757 44.5799 15.129C44.5799 15.363 44.6189 15.564 44.6969 15.732C44.7809 15.9 44.9039 16.029 45.0659 16.119C45.2279 16.209 45.4229 16.254 45.6509 16.254ZM55.9799 18.153C55.1339 18.153 54.4049 18.03 53.7929 17.784C53.1869 17.538 52.7159 17.166 52.3799 16.668C52.0439 16.164 51.8579 15.525 51.8219 14.751H54.5489C54.6029 15.231 54.7559 15.585 55.0079 15.813C55.2659 16.041 55.6109 16.155 56.0429 16.155C56.2589 16.155 56.4659 16.131 56.6639 16.083C56.8619 16.029 57.0239 15.939 57.1499 15.813C57.2759 15.681 57.3389 15.501 57.3389 15.273C57.3389 15.087 57.2909 14.937 57.1949 14.823C57.1049 14.703 56.9699 14.604 56.7899 14.526C56.6159 14.442 56.4029 14.367 56.1509 14.301C55.8989 14.229 55.6139 14.145 55.2959 14.049C54.7319 13.881 54.2039 13.677 53.7119 13.437C53.2259 13.197 52.8329 12.876 52.5329 12.474C52.2329 12.072 52.0829 11.544 52.0829 10.89C52.0829 9.912 52.4399 9.186 53.1539 8.712C53.8739 8.238 54.8159 8.001 55.9799 8.001C56.6639 8.001 57.2789 8.094 57.8249 8.28C58.3709 8.466 58.8209 8.796 59.1749 9.27C59.5349 9.744 59.7659 10.413 59.8679 11.277L57.1589 11.259C57.1049 10.875 57.0119 10.59 56.8799 10.404C56.7479 10.212 56.5979 10.086 56.4299 10.026C56.2619 9.96 56.0879 9.927 55.9079 9.927C55.7039 9.927 55.5179 9.96 55.3499 10.026C55.1879 10.092 55.0589 10.188 54.9629 10.314C54.8669 10.44 54.8189 10.599 54.8189 10.791C54.8189 11.019 54.8909 11.214 55.0349 11.376C55.1789 11.538 55.3979 11.682 55.6919 11.808C55.9859 11.928 56.3609 12.051 56.8169 12.177C57.1169 12.255 57.4529 12.351 57.8249 12.465C58.2029 12.579 58.5629 12.738 58.9049 12.942C59.2529 13.146 59.5379 13.422 59.7599 13.77C59.9879 14.118 60.1019 14.568 60.1019 15.12C60.1019 16.08 59.7329 16.827 58.9949 17.361C58.2569 17.889 57.2519 18.153 55.9799 18.153ZM67.7268 18L64.3608 12.645L66.8448 12.303L67.8168 13.428L71.1468 18H67.7268ZM61.8318 18V3.951H64.5588V11.097L64.3968 12.618V12.69L64.5588 14.265V18H61.8318ZM66.8448 12.942L64.3608 12.645L65.8008 10.539L67.3578 8.181H70.8228L67.7718 11.862L66.8448 12.942ZM72.3439 18V3.942H75.1519V18H72.3439ZM77.502 21.879V19.503H78.573C79.005 19.503 79.335 19.467 79.563 19.395C79.791 19.329 79.959 19.23 80.067 19.098C80.181 18.972 80.271 18.822 80.337 18.648C80.415 18.444 80.49 18.294 80.562 18.198C80.634 18.102 80.727 18.036 80.841 18H79.752L76.485 8.181H79.509L80.814 13.428L81.264 15.336H81.345L81.759 13.437L83.01 8.181H86.016L82.902 18C82.71 18.6 82.494 19.14 82.254 19.62C82.014 20.1 81.729 20.508 81.399 20.844C81.069 21.18 80.673 21.435 80.211 21.609C79.749 21.789 79.203 21.879 78.573 21.879H77.502Z" fill="#0F766E"/>
</svg>
